<svg viewBox="0 0 24 24" xmlns="http://www.w3.org/2000/svg">
  <path fill="#0084FF" d="M16.6915026,12.4744748 L3.50612381,13.2599618 C3.19218622,13.2599618 3.03521743,13.4170592 3.03521743,13.5741566 L1.15159189,20.0151496 C0.8376543,20.8006365 0.99,21.89 1.77946707,22.52 C2.41,22.99 3.50612381,23.1 4.13399899,22.8429026 L21.714504,14.0454487 C22.6563168,13.5741566 23.1272231,12.6315722 22.9702544,11.6889879 L4.13399899,1.16751269 C3.34915502,0.9104153 2.40734225,1.02081244 1.77946707,1.4921046 C0.994623095,2.12073202 0.837654326,3.0633164 1.15159189,3.84880328 L3.03521743,10.2898031 C3.03521743,10.4469004 3.34915502,10.6039978 3.50612381,10.6039978 L16.6915026,11.3895113 C16.6915026,11.3895113 17.1624089,11.3895113 17.1624089,10.9182192 L17.1624089,2.16346272 C17.1624089,1.68227151 17.1624089,1.17158845 17.9508649,1.17158845 L21.714504,1.17158845 C22.3424134,1.17158845 22.9702544,1.68227151 22.9702544,2.16346272 L22.9702544,10.9182192 C22.9702544,11.3895113 22.3424134,11.8608033 21.714504,11.8608033 L17.9508649,11.8608033 C17.1624089,11.8608033 17.1624089,11.3895113 17.1624089,10.9182192 L17.1624089,10.6039978 C17.1624089,10.1327057 16.6915026,12.4744748 16.6915026,12.4744748 Z"/>
</svg>