<svg viewBox="0 0 24 24" xmlns="http://www.w3.org/2000/svg">
  <path fill="#333333" d="M19.14,12.94c.04-.3.06-.61.06-.94c0-.32-.02-.64-.07-.94l1.72-1.35c.15-.12.19-.34.1-.51l-1.63-2.83c-.12-.22-.37-.29-.59-.22l-2.03.8c-.42-.32-.86-.58-1.35-.78L14.5,2.81c-.04-.24-.24-.41-.48-.41h-3.84c-.24,0-.43.17-.47.41L9.13,5.88c-.48.2-.93.46-1.35.78l-2.03-.8c-.22-.09-.47,0-.59.22L2.53,8.91c-.09.17-.04.39.1.51l1.72,1.35c-.05.3-.07.62-.07.94s.02.64.07.94l-1.72,1.35c-.15.12-.19.34-.1.51l1.63,2.83c.12.22.37.29.59.22l2.03-.8c.42.32.86.58,1.35.78l.32,2.1c.05.24.24.41.48.41h3.84c.24,0,.44-.17.47-.41l.32-2.1c.49-.2.94-.47,1.35-.78l2.03.8c.22.09.47,0,.59-.22l1.63-2.83c.09-.17.05-.39-.1-.51l-1.72-1.35zM12,15.6c-1.98,0-3.6-1.62-3.6-3.6s1.62-3.6,3.6-3.6s3.6,1.62,3.6,3.6S13.98,15.6,12,15.6z"/>
</svg>