<svg xmlns="http://www.w3.org/2000/svg" viewBox="0 0 192 192" fill="none">
  <defs>
    <linearGradient id="lt-bg" x1="30" y1="18" x2="164" y2="176" gradientUnits="userSpaceOnUse">
      <stop stop-color="#25A0FF" />
      <stop offset="1" stop-color="#0866FF" />
    </linearGradient>
    <linearGradient id="lt-wave" x1="70" y1="72" x2="136" y2="118" gradientUnits="userSpaceOnUse">
      <stop stop-color="#0866FF" />
      <stop offset="1" stop-color="#25A0FF" />
    </linearGradient>
  </defs>
  <rect width="192" height="192" rx="44" fill="url(#lt-bg)" />
  <path d="M50 52h64c16.569 0 30 13.431 30 30v18c0 16.569-13.431 30-30 30H93l-28 22v-22H50c-16.569 0-30-13.431-30-30V82c0-16.569 13.431-30 30-30Z" fill="white" fill-opacity=".95" />
  <path d="M106 74h30c19.882 0 36 16.118 36 36 0 19.882-16.118 36-36 36h-7v18l-24-18" fill="white" fill-opacity=".18" />
  <path d="m62 108 22-24 23 18 23-18-15 30-22-17-31 11Z" fill="url(#lt-wave)" />
</svg>
